HIERARCHY
ROOT Hips
{
    OFFSET   0.000000   0.000000   0.000000
    CHANNELS 6 Xposition Yposition Zposition Zrotation Xrotation Yrotation
    JOINT Chest
    {
        OFFSET   0.000000   8.007230   0.000000
        CHANNELS 3 Zrotation Xrotation Yrotation
        JOINT Chest2
        {
            OFFSET   0.000000  22.077100   0.000000
            CHANNELS 3 Zrotation Xrotation Yrotation
            JOINT Neck
            {
                OFFSET   0.000000  23.254700   0.000000
                CHANNELS 3 Zrotation Xrotation Yrotation
                JOINT Head
                {
                    OFFSET   0.000010  14.370000   1.956610
                    CHANNELS 3 Zrotation Xrotation Yrotation
                    End Site
                    {
                        OFFSET   0.000000  19.566000   0.000000
                    }
                }
            }
            JOINT LeftCollar
            {
                OFFSET   3.911900  19.017000  -0.467063
                CHANNELS 3 Zrotation Xrotation Yrotation
                JOINT LeftShoulder
                {
                    OFFSET  10.383700   0.000000   0.000000
                    CHANNELS 3 Zrotation Xrotation Yrotation
                    JOINT LeftElbow
                    {
                        OFFSET  26.662100   0.001671   0.000522
                        CHANNELS 3 Zrotation Xrotation Yrotation
                        JOINT LeftWrist
                        {
                            OFFSET  28.869000   0.000037  -0.000114
                            CHANNELS 3 Zrotation Xrotation Yrotation
                            JOINT LeftFinger0
                            {
                                OFFSET   2.044650  -2.323450   3.252850
                                CHANNELS 3 Zrotation Xrotation Yrotation
                                JOINT LeftFinger01
                                {
                                    OFFSET   3.088140   0.000000   0.000000
                                    CHANNELS 3 Zrotation Xrotation Yrotation
                                    JOINT LeftFinger02
                                    {
                                        OFFSET   2.639460   0.000000   0.000000
                                        CHANNELS 3 Zrotation Xrotation Yrotation
                                        End Site
                                        {
                                            OFFSET   2.582190   0.000000   0.000000
                                        }
                                    }
                                }
                            }
                            JOINT LeftFinger1
                            {
                                OFFSET   8.364480   0.000000   3.252850
                                CHANNELS 3 Zrotation Xrotation Yrotation
                                JOINT LeftFinger11
                                {
                                    OFFSET   4.646930   0.000000   0.000000
                                    CHANNELS 3 Zrotation Xrotation Yrotation
                                    JOINT LeftFinger12
                                    {
                                        OFFSET   2.323470   0.000000   0.000000
                                        CHANNELS 3 Zrotation Xrotation Yrotation
                                        End Site
                                        {
                                            OFFSET   2.273050   0.000000   0.000000
                                        }
                                    }
                                }
                            }
                            JOINT LeftFinger2
                            {
                                OFFSET   8.364490   0.000016   1.078090
                                CHANNELS 3 Zrotation Xrotation Yrotation
                                JOINT LeftFinger21
                                {
                                    OFFSET   5.111620   0.000000   0.000000
                                    CHANNELS 3 Zrotation Xrotation Yrotation
                                    JOINT LeftFinger22
                                    {
                                        OFFSET   2.788150   0.000013   0.000000
                                        CHANNELS 3 Zrotation Xrotation Yrotation
                                        End Site
                                        {
                                            OFFSET   2.727660   0.000000   0.000000
                                        }
                                    }
                                }
                            }
                            JOINT LeftFinger3
                            {
                                OFFSET   7.899780   0.000016  -1.078090
                                CHANNELS 3 Zrotation Xrotation Yrotation
                                JOINT LeftFinger31
                                {
                                    OFFSET   4.646930   0.000000   0.000000
                                    CHANNELS 3 Zrotation Xrotation Yrotation
                                    JOINT LeftFinger32
                                    {
                                        OFFSET   2.323470   0.000000   0.000000
                                        CHANNELS 3 Zrotation Xrotation Yrotation
                                        End Site
                                        {
                                            OFFSET   2.273050   0.000000   0.000000
                                        }
                                    }
                                }
                            }
                            JOINT LeftFinger4
                            {
                                OFFSET   7.435080   0.000000  -3.252850
                                CHANNELS 3 Zrotation Xrotation Yrotation
                                JOINT LeftFinger41
                                {
                                    OFFSET   3.717550   0.000000   0.000000
                                    CHANNELS 3 Zrotation Xrotation Yrotation
                                    JOINT LeftFinger42
                                    {
                                        OFFSET   1.858760   0.000000   0.000000
                                        CHANNELS 3 Zrotation Xrotation Yrotation
                                        End Site
                                        {
                                            OFFSET   1.818440   0.000000   0.000000
                                        }
                                    }
                                }
                            }
                        }
                    }
                }
            }
            JOINT RightCollar
            {
                OFFSET  -3.911900  19.017000  -0.467064
                CHANNELS 3 Zrotation Xrotation Yrotation
                JOINT RightShoulder
                {
                    OFFSET -10.383700   0.000000   0.000000
                    CHANNELS 3 Zrotation Xrotation Yrotation
                    JOINT RightElbow
                    {
                        OFFSET -26.662100   0.001633   0.000260
                        CHANNELS 3 Zrotation Xrotation Yrotation
                        JOINT RightWrist
                        {
                            OFFSET -28.869000  -0.000045  -0.000080
                            CHANNELS 3 Zrotation Xrotation Yrotation
                            JOINT RightFinger0
                            {
                                OFFSET  -2.044660  -2.323490   3.252850
                                CHANNELS 3 Zrotation Xrotation Yrotation
                                JOINT RightFinger01
                                {
                                    OFFSET  -3.088140   0.000000   0.000000
                                    CHANNELS 3 Zrotation Xrotation Yrotation
                                    JOINT RightFinger02
                                    {
                                        OFFSET  -2.639450   0.000000   0.000000
                                        CHANNELS 3 Zrotation Xrotation Yrotation
                                        End Site
                                        {
                                            OFFSET  -2.582190   0.000000   0.000000
                                        }
                                    }
                                }
                            }
                            JOINT RightFinger1
                            {
                                OFFSET  -8.364480   0.000000   3.252850
                                CHANNELS 3 Zrotation Xrotation Yrotation
                                JOINT RightFinger11
                                {
                                    OFFSET  -4.646920   0.000000   0.000000
                                    CHANNELS 3 Zrotation Xrotation Yrotation
                                    JOINT RightFinger12
                                    {
                                        OFFSET  -2.323470   0.000000   0.000000
                                        CHANNELS 3 Zrotation Xrotation Yrotation
                                        End Site
                                        {
                                            OFFSET  -2.273050   0.000000   0.000000
                                        }
                                    }
                                }
                            }
                            JOINT RightFinger2
                            {
                                OFFSET  -8.364480   0.000000   1.078090
                                CHANNELS 3 Zrotation Xrotation Yrotation
                                JOINT RightFinger21
                                {
                                    OFFSET  -5.111610   0.000000   0.000000
                                    CHANNELS 3 Zrotation Xrotation Yrotation
                                    JOINT RightFinger22
                                    {
                                        OFFSET  -2.788160   0.000000   0.000000
                                        CHANNELS 3 Zrotation Xrotation Yrotation
                                        End Site
                                        {
                                            OFFSET  -2.727660   0.000000   0.000000
                                        }
                                    }
                                }
                            }
                            JOINT RightFinger3
                            {
                                OFFSET  -7.899780   0.000000  -1.078090
                                CHANNELS 3 Zrotation Xrotation Yrotation
                                JOINT RightFinger31
                                {
                                    OFFSET  -4.646930   0.000000   0.000000
                                    CHANNELS 3 Zrotation Xrotation Yrotation
                                    JOINT RightFinger32
                                    {
                                        OFFSET  -2.323470   0.000000   0.000000
                                        CHANNELS 3 Zrotation Xrotation Yrotation
                                        End Site
                                        {
                                            OFFSET  -2.273050   0.000000   0.000000
                                        }
                                    }
                                }
                            }
                            JOINT RightFinger4
                            {
                                OFFSET  -7.435090   0.000000  -3.252850
                                CHANNELS 3 Zrotation Xrotation Yrotation
                                JOINT RightFinger41
                                {
                                    OFFSET  -3.717550   0.000000   0.000000
                                    CHANNELS 3 Zrotation Xrotation Yrotation
                                    JOINT RightFinger42
                                    {
                                        OFFSET  -1.858760   0.000000   0.000000
                                        CHANNELS 3 Zrotation Xrotation Yrotation
                                        End Site
                                        {
                                            OFFSET  -1.818440   0.000000   0.000000
                                        }
                                    }
                                }
                            }
                        }
                    }
                }
            }
        }
    }
    JOINT LeftHip
    {
        OFFSET   9.782990   0.000000   0.000000
        CHANNELS 3 Zrotation Xrotation Yrotation
        JOINT LeftKnee
        {
            OFFSET  -0.000063 -41.789100   0.001657
            CHANNELS 3 Zrotation Xrotation Yrotation
            JOINT LeftAnkle
            {
                OFFSET   0.000078 -41.133200  -0.000113
                CHANNELS 3 Zrotation Xrotation Yrotation
                JOINT LeftToe
                {
                    OFFSET   0.000000  -6.358970  14.674500
                    CHANNELS 3 Zrotation Xrotation Yrotation
                    End Site
                    {
                        OFFSET   0.000000   0.000000   3.913200
                    }
                }
            }
        }
    }
    JOINT RightHip
    {
        OFFSET  -9.782990   0.000000   0.000000
        CHANNELS 3 Zrotation Xrotation Yrotation
        JOINT RightKnee
        {
            OFFSET   0.000053 -41.789200   0.000277
            CHANNELS 3 Zrotation Xrotation Yrotation
            JOINT RightAnkle
            {
                OFFSET   0.000030 -41.133200  -0.000150
                CHANNELS 3 Zrotation Xrotation Yrotation
                JOINT RightToe
                {
                    OFFSET   0.000000  -6.358960  14.674500
                    CHANNELS 3 Zrotation Xrotation Yrotation
                    End Site
                    {
                        OFFSET   0.000000   0.000000   3.913200
                    }
                }
            }
        }
    }
}
MOTION
Frames: 4
Frame Time:   0.016667
 -2.358170  89.478800   0.745859  -6.613360 -14.831100  -9.856990   2.118550   7.173890  -1.416250   4.469600  14.287400  -3.138350   2.409810  -0.551277   0.023209   3.960500  -1.112400 -11.690400  -2.813780  -0.929216  -1.079390 -76.072500  24.373100  -8.730410  -1.974760  -9.730290 -11.761300  10.152500  -2.885140   1.744420  36.075600  23.751400 -58.325000 -29.125600   0.005817   0.003266  -9.562800   0.002051  -0.000810 -19.677200   2.556200  -7.109110 -16.229500   0.002383   0.000074 -11.360700   0.000122  -0.005570 -26.358300   0.254597  -0.514373 -26.359100   0.002548  -0.002271 -17.555100   0.002244   0.003787 -23.577800   0.229707  -0.526266 -23.578600   0.008725  -0.005820 -15.703400   0.005751   0.001792 -22.608300   0.220739  -0.530054 -33.913400   0.003787  -0.008229 -22.586300   0.001268   0.005241   1.252940  -5.849130   4.266320  32.624200 -23.609300  46.149100 -43.729700 -13.509600  35.319200 -13.708800  33.299600  -9.966850 -34.977000  30.683800  73.990900  32.267800   0.008696  -0.005154  11.133900   0.004406   0.000774   4.079120   0.156635   2.006540   3.343170  -0.003845   0.001063   2.340190  -0.000714  -0.000553  83.159000   0.020047   0.004614  83.158700   0.002202   0.004068  62.369000   0.003477  -0.003977  83.166000  -4.966380  -0.592355  83.191800   0.002641   0.001983  62.393800   0.004638  -0.001619  86.216800  -9.980100  -0.654936 110.004000   0.004754   0.003208  80.000000   0.003104  -0.001925   4.880170  19.845700   5.251380   1.648480   0.104828   7.794020  -3.725060  -4.328250   0.584844   0.000000   0.000000   0.000000   6.525720  15.950400  -0.078245  -2.183730   4.861630  -3.422480   1.108450  -5.357690   7.028610   0.000000   0.000000   0.000000
 -2.371910  89.480700   0.758475  -6.642450 -14.759400 -10.073100   2.121430   7.169290  -1.438660   4.479750  14.277100  -3.183810   2.329060  -0.613451   0.023814   3.827860  -1.238360 -11.046300  -2.821690  -0.978029  -1.159060 -76.026000  24.224800  -8.576430  -2.009160  -9.699700 -11.681300  10.135900  -2.848420   1.784320  36.081300  23.743300 -58.232600 -29.159300   0.005902   0.003335  -9.579640   0.002127  -0.000818 -19.649100   2.554930  -7.111140 -16.206900   0.002394   0.000073 -11.344800   0.000216  -0.005577 -26.294300   0.237616  -0.481533 -26.295000   0.002613  -0.002323 -17.512400   0.002297   0.003781 -23.562700   0.214758  -0.492387 -23.563400   0.008651  -0.005945 -15.693300   0.005752   0.001792 -22.582300   0.206282  -0.495966 -33.874500   0.003738  -0.008368 -22.560400   0.001270   0.005190   1.481760  -5.729960   4.279960  33.190900 -24.176200  45.174600 -43.489200 -13.546800  35.118200 -12.560700  32.617300  -9.880420 -35.448300  31.200500  74.758000  31.209900   0.005090  -0.002773  10.605000   0.004111   0.000630   4.108480   0.230434   3.086280   3.371100  -0.003893   0.000693   2.359760  -0.001373  -0.000532  82.959900   0.008922   0.003780  82.959500   0.001458   0.003056  62.219700   0.002535  -0.004025  82.906500  -4.963720  -0.615316  82.933200   0.001622  -0.000738  62.199900   0.003374  -0.001831  85.956700  -9.976770  -0.700595 110.005000   0.004389   0.002828  80.000000   0.003175  -0.001735   4.833570  19.824900   5.283250   1.648070   0.131230   7.888770  -3.711870  -4.361790   0.690129  -0.000000   0.000000   0.000000   6.472500  15.931700  -0.034249  -2.164510   4.795750  -3.368270   1.131030  -5.331650   7.150070   0.000000   0.000000  -0.000000
 -2.385470  89.481100   0.768695  -6.675470 -14.685800 -10.290300   2.123860   7.168100  -1.447720   4.484120  14.274400  -3.202390   2.253130  -0.680987   0.024354   3.703460  -1.375200 -10.368800  -2.830970  -1.037830  -1.230240 -75.950500  24.115700  -8.433730  -2.048160  -9.697480 -11.606800  10.119900  -2.795500   1.843990  36.099800  23.777000 -58.138800 -29.183400   0.005987   0.003401  -9.591710   0.002205  -0.000826 -19.624800   2.554670  -7.125380 -16.186900   0.002405   0.000072 -11.330800   0.000309  -0.005585 -26.204300   0.220634  -0.448692 -26.205200   0.002679  -0.002377 -17.452600   0.002352   0.003776 -23.549800   0.199810  -0.458508 -23.550500   0.008576  -0.006069 -15.684700   0.005753   0.001793 -22.557800   0.191824  -0.461878 -33.837900   0.003689  -0.008509 -22.536000   0.001272   0.005140   1.717000  -5.638040   4.289670  33.674800 -24.595000  44.124200 -43.322800 -13.560600  35.041700 -12.219900  31.838400  -9.732940 -35.793900  31.633700  75.338700  30.417900   0.004155  -0.002339  10.209000   0.003751   0.000492   4.288850   0.308857   4.080810   3.522320  -0.003940   0.000380   2.465640  -0.002102  -0.000477  82.766600  -0.002202   0.002185  82.766400   0.000614   0.001885  62.074900   0.001455  -0.004074  82.688600  -4.961670  -0.634512  82.716100   0.000738  -0.003476  62.037100   0.001993  -0.002065  85.767000  -9.974540  -0.733727 110.005000   0.004014   0.002444  80.000000   0.003240  -0.001539   4.790200  19.792700   5.315440   1.646880   0.162586   7.981250  -3.694300  -4.394830   0.798368  -0.000000   0.000000  -0.000000   6.425790  15.913700   0.007814  -2.146950   4.723720  -3.308010   1.147230  -5.300350   7.266400   0.000000   0.000000  -0.000000
 -2.400310  89.480100   0.778337  -6.712100 -14.611600 -10.506300   2.131020   7.167460  -1.444450   4.496970  14.273100  -3.196650   2.179550  -0.750866   0.024871   3.582270  -1.516550  -9.692100  -2.846140  -1.093120  -1.269230 -75.840300  24.045700  -8.316240  -2.095860  -9.715350 -11.565500  10.098400  -2.767470   1.883170  36.098800  23.751100 -58.082000 -29.182500   0.006064   0.003421  -9.591250   0.002298  -0.000826 -19.600000   2.572900  -7.189400 -16.168400   0.002413   0.000070 -11.317900   0.000401  -0.005589 -26.153000   0.234598  -0.477750 -26.153900   0.002756  -0.002438 -17.418500   0.002404   0.003772 -23.535300   0.212525  -0.488043 -23.536200   0.008502  -0.006190 -15.675200   0.005759   0.001798 -22.532200   0.203969  -0.491661 -33.799700   0.003642  -0.008662 -22.510500   0.001272   0.005088   1.942420  -5.550510   4.317030  34.124100 -24.923100  42.985400 -43.402300 -13.187200  35.191800 -12.506700  31.011100  -9.427480 -36.083800  31.968700  75.818700  29.968200   0.004228  -0.002357   9.984110   0.003334   0.000355   4.666390   0.380935   4.724980   3.835610  -0.004212  -0.000032   2.684930  -0.002579  -0.000423  82.508000  -0.001612   0.000988  82.507900   0.000142   0.001180  61.881000   0.000844  -0.004139  82.453100  -4.958420  -0.655510  82.481500   0.000219  -0.006557  61.861100   0.000965  -0.002321  85.613300  -9.972350  -0.760704 110.006000   0.003625   0.002051  80.000000   0.003296  -0.001346   4.752660  19.774200   5.355780   1.642200   0.165865   8.059260  -3.674720  -4.412840   0.911240   0.000000   0.000000   0.000000   6.390420  15.897800   0.041614  -2.132530   4.643070  -3.245060   1.150470  -5.263960   7.383700  -0.000000   0.000000   0.000000
